<?xml version="1.0" standalone="no"?>
<!DOCTYPE svg PUBLIC "-//W3C//DTD SVG 20010904//EN"
 "http://www.w3.org/TR/2001/REC-SVG-20010904/DTD/svg10.dtd">
<svg version="1.0" xmlns="http://www.w3.org/2000/svg"
 width="2673.000000pt" height="707.000000pt" viewBox="0 0 2673.000000 707.000000"
 preserveAspectRatio="xMidYMid meet">

<g transform="translate(0.000000,707.000000) scale(0.100000,-0.100000)"
fill="#000000" stroke="none">
<path d="M23037 6324 l-868 -455 -132 125 -132 124 -5 -196 -5 -197 -1284
-672 c-707 -370 -1286 -671 -1287 -670 -2 1 304 425 680 942 375 517 680 941
676 943 -5 2 -1752 -407 -1756 -411 -1 -1 -117 -976 -258 -2167 -141 -1191
-259 -2174 -261 -2186 -4 -19 48 -42 643 -274 356 -139 663 -259 682 -267 34
-14 35 -13 13 4 -12 10 -143 119 -292 243 l-271 225 1 50 c0 28 17 416 38 863
l38 813 164 157 c90 86 203 194 251 241 84 81 88 83 96 60 5 -13 136 -432 292
-930 l282 -906 635 -127 c349 -70 638 -126 642 -124 5 2 -344 530 -775 1173
-431 644 -784 1172 -784 1175 1 3 253 126 560 274 526 253 560 271 560 295 1
47 37 431 41 435 24 19 654 459 665 463 12 4 14 -18 14 -136 0 -106 3 -141 13
-141 102 4 689 49 694 54 3 3 16 64 28 136 l22 130 -149 146 c-82 80 -148 147
-146 149 2 2 347 245 768 540 725 509 790 556 780 555 -3 -1 -396 -206 -873
-456z"/>
<path d="M5778 6293 c7 -3 16 -2 19 1 4 3 -2 6 -13 5 -11 0 -14 -3 -6 -6z"/>
<path d="M3045 5958 c-1457 -182 -2650 -331 -2651 -332 -3 -4 513 -4776 517
-4780 3 -3 137 772 299 1722 164 969 298 1731 305 1737 7 6 799 141 1761 300
962 160 1736 291 1719 293 -16 1 -601 -20 -1300 -47 -698 -28 -1463 -58 -1699
-67 -252 -10 -431 -13 -433 -8 -2 5 -55 103 -118 219 -63 115 -111 212 -107
216 4 3 997 246 2207 538 1210 293 2205 534 2210 536 37 13 -341 -32 -2710
-327z"/>
<path d="M8558 5873 c-622 -244 -677 -268 -673 -287 2 -12 120 -995 261 -2186
141 -1191 257 -2166 258 -2167 4 -4 1751 -413 1756 -411 4 2 -301 426 -676
943 -376 517 -682 941 -680 942 1 1 575 -297 1276 -664 l1273 -667 -5 -370 -6
-371 57 337 c32 186 60 340 62 342 2 2 369 -187 814 -420 1077 -565 1122 -588
1110 -576 -5 5 -422 299 -925 652 -503 353 -922 650 -932 659 -15 15 2 126
249 1604 146 874 263 1590 261 1591 -1 2 -151 -15 -333 -38 l-330 -41 -8
-1015 c-4 -558 -10 -1231 -15 -1496 l-7 -481 -310 219 c-170 120 -316 223
-324 227 -10 6 -19 64 -32 212 -10 112 -18 216 -19 230 0 24 -34 42 -560 295
-307 148 -559 271 -560 274 0 3 353 532 784 1175 431 644 780 1171 775 1173
-4 2 -293 -54 -642 -124 l-635 -127 -282 -906 c-156 -498 -287 -917 -292 -930
-8 -23 -12 -21 -96 60 -48 47 -161 155 -251 241 l-164 157 -38 813 c-21 447
-38 836 -38 863 l-1 50 271 225 c149 124 280 233 292 242 12 10 20 17 17 17
-3 0 -310 -120 -682 -266z"/>
<path d="M11380 5597 c0 -415 3 -527 13 -527 102 4 689 49 694 54 3 3 16 64
28 136 l22 130 -311 302 c-171 167 -341 332 -378 367 l-68 64 0 -526z"/>
<path d="M13055 5794 c-225 -151 -412 -279 -414 -285 -1 -5 -191 -837 -420
-1847 l-417 -1837 255 -7 c373 -11 619 -23 626 -29 3 -4 -23 -132 -58 -285
l-63 -279 250 -7 c431 -12 639 -25 1785 -108 613 -44 1115 -79 1117 -77 2 2
-587 137 -1309 301 -722 165 -1316 302 -1320 306 -13 12 24 120 41 120 8 0
422 -29 920 -65 498 -36 906 -64 908 -62 2 2 -389 92 -869 201 -480 109 -875
202 -880 205 -4 4 222 767 503 1697 281 929 513 1700 517 1712 4 19 -81 -34
-403 -248 -225 -150 -412 -275 -416 -279 -4 -3 -147 -627 -319 -1386 -172
-759 -316 -1384 -320 -1389 -8 -9 -427 80 -442 94 -4 4 251 865 568 1914 317
1049 575 1909 573 1911 -2 1 -187 -121 -413 -271z"/>
<path d="M23575 5794 c-225 -151 -412 -279 -414 -285 -1 -5 -191 -837 -420
-1847 l-417 -1837 255 -7 c373 -11 619 -23 626 -29 3 -4 -23 -132 -58 -285
l-63 -279 250 -7 c431 -12 639 -25 1785 -108 613 -44 1115 -79 1117 -77 2 2
-587 137 -1309 301 -722 165 -1316 302 -1320 306 -13 12 24 120 41 120 8 0
422 -29 920 -65 498 -36 906 -64 908 -62 2 2 -389 92 -869 201 -480 109 -875
202 -880 205 -4 4 222 767 503 1697 281 929 513 1700 517 1712 4 19 -81 -34
-403 -248 -225 -150 -412 -275 -416 -279 -4 -3 -147 -627 -319 -1386 -172
-759 -316 -1384 -320 -1389 -8 -9 -427 80 -442 94 -4 4 251 865 568 1914 317
1049 575 1909 573 1911 -2 1 -187 -121 -413 -271z"/>
<path d="M6417 5970 c-4 -14 -83 -610 -177 -1325 -94 -715 -174 -1308 -178
-1317 -5 -13 -71 63 -282 327 -151 189 -275 343 -276 342 -1 -1 -23 -362 -49
-802 -26 -440 -49 -802 -51 -804 -2 -2 -72 61 -156 141 -803 762 -1202 1138
-1207 1138 -3 0 -125 -168 -271 -373 -259 -365 -264 -373 -262 -417 3 -56 111
-1211 115 -1226 1 -6 368 98 880 249 482 143 880 257 883 254 7 -6 -20 -506
-27 -511 -2 -1 -102 -49 -223 -106 -198 -95 -216 -106 -190 -113 16 -4 238
-43 494 -87 256 -44 472 -82 481 -84 11 -2 15 2 13 13 -16 66 -313 1666 -310
1668 3 3 138 -237 382 -681 l32 -59 34 109 c19 60 122 395 229 744 187 612
194 633 201 585 4 -28 24 -520 44 -1095 20 -575 37 -1046 38 -1046 1 -2 745
54 772 58 19 3 -1 103 -452 2208 -260 1213 -475 2212 -477 2220 -2 9 -6 6 -10
-10z m-1897 -3067 c140 -64 257 -118 259 -119 5 -4 64 -484 60 -487 -2 -2
-116 -52 -252 -112 l-249 -109 -299 149 c-164 83 -299 155 -299 161 0 9 80
396 94 459 3 11 28 38 56 59 43 33 73 44 198 76 81 21 154 39 162 39 8 1 130
-51 270 -116z"/>
<path d="M16598 4842 l-506 -85 -145 -391 -144 -391 -586 -170 c-322 -93 -584
-171 -583 -172 1 -1 245 28 542 66 296 38 541 67 543 65 2 -2 -138 -389 -312
-861 -174 -471 -316 -858 -314 -859 2 -2 1263 1758 1289 1799 3 5 163 30 355
54 191 25 349 46 349 46 1 1 54 107 118 235 113 227 116 234 89 227 -15 -3
-163 -46 -328 -94 -165 -48 -302 -87 -303 -85 -2 1 109 160 247 353 231 324
248 351 223 350 -15 -1 -255 -40 -534 -87z"/>
<path d="M22223 4786 c-177 -22 -324 -43 -326 -46 -3 -3 -10 -795 -16 -1760
-6 -965 -13 -1888 -15 -2050 l-5 -295 349 2080 c192 1144 349 2088 349 2098 1
9 -2 16 -6 16 -5 -1 -153 -20 -330 -43z"/>
<path d="M2480 4117 c-322 -60 -586 -110 -587 -111 0 0 -85 -509 -187 -1131
-103 -621 -188 -1139 -191 -1150 -3 -11 -70 -103 -151 -203 -80 -101 -143
-186 -140 -189 13 -14 566 -179 566 -169 0 23 131 1302 136 1324 l5 24 132 -7
c73 -4 141 -11 152 -15 17 -6 46 -88 158 -441 76 -238 139 -434 140 -435 4 -3
782 58 785 61 2 2 -174 261 -392 576 -217 316 -392 577 -388 581 4 3 152 59
328 123 l322 117 -4 36 c-3 21 -25 276 -49 567 -25 292 -46 535 -48 540 -1 7
-226 -31 -587 -98z m88 -353 c125 -36 231 -70 235 -74 7 -6 -50 -329 -69 -390
-4 -15 -287 -225 -303 -225 -11 0 -336 364 -336 377 0 14 229 377 238 378 5 0
110 -30 235 -66z"/>
<path d="M16381 3008 c-418 -397 -759 -724 -756 -726 14 -14 1940 -577 1942
-568 4 15 112 1170 115 1226 2 44 -3 52 -262 417 -146 205 -268 373 -271 373
-3 0 -349 -325 -768 -722z m716 33 c131 -33 160 -44 203 -77 28 -21 53 -48 56
-59 14 -63 94 -450 94 -459 0 -6 -135 -78 -299 -161 l-299 -149 -249 109
c-136 60 -250 110 -252 112 -4 3 55 483 60 487 18 13 508 234 519 235 8 0 84
-17 167 -38z"/>
</g>
</svg>
