<?xml version="1.0" standalone="no"?>
<!DOCTYPE svg PUBLIC "-//W3C//DTD SVG 20010904//EN"
 "http://www.w3.org/TR/2001/REC-SVG-20010904/DTD/svg10.dtd">
<svg version="1.0" xmlns="http://www.w3.org/2000/svg"
 width="1200.000000pt" height="1200.000000pt" viewBox="0 0 1200.000000 1200.000000"
 preserveAspectRatio="xMidYMid meet">

<g transform="translate(0.000000,1200.000000) scale(0.100000,-0.100000)"
fill="#000000" stroke="none">
<path d="M9296 11359 l-588 -309 -78 70 c-42 38 -84 77 -91 86 -12 15 -15 -1
-19 -120 l-5 -137 -650 -340 c-941 -493 -1148 -599 -1153 -594 -4 4 73 112
599 840 151 209 289 401 307 426 l31 47 -87 -20 c-127 -28 -1060 -247 -1104
-259 -21 -5 -38 -12 -38 -15 0 -3 -81 -685 -180 -1517 -100 -832 -179 -1521
-178 -1532 4 -26 13 -30 478 -212 477 -187 440 -173 440 -169 0 2 -85 74 -190
161 l-190 158 0 65 c0 35 11 310 25 610 l26 546 161 155 c184 178 196 188 203
169 3 -7 95 -301 205 -652 110 -352 201 -640 202 -641 8 -6 881 -175 885 -172
2 3 -240 370 -537 817 -298 447 -544 818 -546 824 -2 6 157 89 368 191 204 99
382 188 395 198 18 15 23 29 24 70 0 29 6 98 12 154 l12 103 235 164 c129 90
238 162 243 159 4 -2 7 -47 7 -99 l0 -95 73 6 c39 3 148 12 240 19 93 8 173
18 177 22 5 5 14 47 21 94 l12 85 -104 102 c-57 56 -101 104 -99 106 3 3 237
168 520 367 479 336 542 381 530 379 -3 0 -270 -140 -594 -310z"/>
<path d="M4278 11333 c7 -3 16 -2 19 1 4 3 -2 6 -13 5 -11 0 -14 -3 -6 -6z"/>
<path d="M3830 11284 c-195 -25 -1005 -126 -1800 -225 -794 -99 -1446 -181
-1447 -183 -4 -3 59 -593 217 -2056 128 -1180 138 -1261 145 -1268 3 -3 5 0 5
7 0 13 368 2155 396 2303 11 63 21 89 33 93 9 2 297 52 641 110 1542 259 1724
290 1701 293 -22 3 -390 -9 -1231 -43 -769 -31 -948 -36 -1020 -33 l-75 3 -79
148 c-43 81 -76 151 -73 154 9 8 391 102 2572 629 237 58 435 106 440 108 31
13 -110 -1 -425 -40z"/>
<path d="M9704 10999 c-148 -99 -276 -187 -285 -197 -10 -11 -118 -468 -303
-1287 -159 -698 -290 -1280 -293 -1292 -5 -23 -4 -23 113 -23 146 -1 494 -17
500 -23 3 -2 -15 -92 -38 -199 l-44 -195 301 -11 c165 -7 363 -17 440 -22 842
-61 1409 -99 1412 -97 2 2 -90 25 -204 51 -1001 228 -1570 360 -1580 368 -8 7
-9 18 -1 41 6 18 14 35 17 39 3 4 224 -8 491 -27 725 -51 755 -53 757 -51 2 1
-122 31 -275 65 -454 104 -904 209 -908 214 -5 5 279 961 686 2305 15 50 25
92 21 92 -8 0 -167 -102 -418 -270 -129 -86 -144 -99 -154 -133 -5 -22 -95
-411 -199 -865 -268 -1175 -237 -1052 -268 -1052 -30 0 -279 54 -287 62 -7 6
50 199 459 1562 185 615 335 1120 333 1122 -2 2 -124 -78 -273 -177z"/>
<path d="M4820 11111 c0 -23 -241 -1826 -246 -1840 -7 -21 -34 8 -221 240 -92
114 -169 207 -170 205 -2 -2 -17 -221 -33 -487 -40 -655 -38 -632 -60 -616 -9
6 -210 195 -446 418 -236 223 -445 419 -464 436 l-35 31 -56 -77 c-110 -149
-301 -426 -309 -446 -4 -11 5 -157 21 -325 16 -168 34 -362 40 -432 10 -109
15 -128 29 -128 16 0 223 59 894 254 181 53 331 94 333 92 5 -4 -15 -357 -20
-362 -1 -1 -69 -34 -152 -74 l-150 -72 350 -63 c193 -34 351 -62 352 -61 1 1
-19 107 -43 236 -35 186 -103 550 -169 915 -6 29 -5 29 10 10 9 -11 73 -122
142 -248 69 -125 128 -229 132 -232 4 -2 74 213 156 478 81 265 153 493 160
507 13 24 13 24 19 -20 3 -25 18 -367 32 -760 14 -393 27 -716 28 -717 1 -2
308 20 459 33 73 6 77 8 77 30 0 14 -25 145 -56 292 -99 479 -595 2787 -600
2791 -2 2 -4 -1 -4 -8z m-1310 -2158 c80 -36 149 -69 153 -73 7 -6 46 -278 47
-326 0 -18 -27 -34 -176 -100 l-176 -78 -202 102 c-110 56 -206 105 -213 109
-9 6 -3 49 21 171 44 217 45 218 276 275 62 16 41 22 270 -80z"/>
<path d="M8708 10282 l-186 -25 -6 -81 c-4 -65 -25 -2746 -21 -2753 0 -1 108
640 239 1425 131 785 240 1435 243 1445 6 23 -30 21 -269 -11z"/>
<path d="M2110 9825 c-157 -29 -328 -61 -380 -71 l-94 -19 -136 -808 -135
-807 -93 -120 c-51 -66 -95 -126 -98 -133 -3 -10 34 -25 128 -55 177 -55 249
-75 253 -70 2 2 67 616 92 876 3 34 9 65 13 67 17 11 192 -9 206 -22 7 -8 57
-147 109 -309 l96 -294 47 0 c68 0 482 37 489 43 3 3 -55 94 -129 201 -375
551 -407 601 -394 611 7 6 110 45 229 89 l216 79 -5 41 c-5 47 -64 727 -64
745 0 18 -51 12 -350 -44z m56 -271 c50 -14 96 -29 103 -33 14 -9 -30 -263
-50 -287 -12 -15 -134 -108 -180 -138 l-26 -17 -61 63 c-33 35 -87 95 -121
134 l-61 71 48 79 c27 44 65 105 85 136 l36 57 68 -20 c37 -10 109 -31 159
-45z"/>
<path d="M3780 7154 c-1168 -459 -1302 -513 -1333 -537 -15 -11 -8 -86 83
-842 87 -728 371 -3113 476 -4005 21 -173 38 -316 38 -317 3 -6 2059 -484
2063 -479 5 4 -267 383 -978 1366 -597 825 -615 850 -605 850 7 0 393 -200
1181 -612 319 -167 861 -449 1204 -628 l623 -325 -5 -410 c-3 -226 -3 -405 -1
-400 2 6 26 143 53 305 66 389 74 426 92 422 17 -4 427 -216 1404 -727 413
-216 766 -400 785 -409 l35 -17 -29 23 c-17 13 -390 277 -830 587 -1297 912
-1306 919 -1306 946 0 54 42 318 290 1815 142 861 271 1646 287 1745 l29 180
-25 3 c-28 4 -727 -79 -741 -88 -6 -4 -14 -489 -20 -1245 -13 -1511 -24 -2272
-32 -2280 -11 -11 -749 517 -759 543 -5 13 -19 134 -31 269 l-22 245 -66 38
c-36 21 -283 144 -550 273 -607 293 -700 340 -700 349 0 5 365 556 812 1226
878 1317 1020 1533 1014 1539 -2 3 -28 0 -58 -6 -29 -5 -364 -72 -744 -147
l-692 -136 -30 -96 c-159 -509 -619 -1981 -634 -2029 -10 -35 -24 -63 -29 -63
-10 0 -204 181 -461 432 l-137 133 -15 355 c-30 678 -65 1446 -71 1562 l-6
117 301 250 c165 137 318 263 338 280 20 17 33 30 27 30 -5 0 -107 -39 -225
-85z"/>
<path d="M6570 6620 c0 -333 4 -610 8 -617 6 -9 67 -8 272 7 513 38 541 41
550 64 12 32 52 272 48 288 -2 12 -373 376 -825 812 l-53 50 0 -604z"/>
<path d="M8596 6876 c-234 -156 -451 -304 -483 -328 l-58 -44 -492 -2164
c-271 -1191 -492 -2170 -493 -2176 0 -7 136 -14 408 -23 426 -14 618 -24 627
-33 6 -5 -37 -216 -99 -490 -20 -86 -36 -160 -36 -165 0 -5 172 -14 383 -21
417 -13 688 -29 1642 -97 690 -49 1444 -102 1570 -110 44 -2 76 -3 70 0 -10 4
-339 80 -1020 235 -734 167 -2005 460 -2020 466 -18 7 -19 33 -3 85 21 71 6
69 368 43 1216 -87 1789 -126 1775 -119 -5 2 -199 47 -430 100 -594 136 -1449
333 -1522 352 -60 15 -63 16 -56 42 10 45 205 705 342 1161 176 588 839 2788
851 2822 l9 28 -47 -24 c-47 -24 -922 -602 -922 -609 0 -2 -18 -82 -41 -178
-22 -96 -175 -763 -339 -1484 -399 -1746 -366 -1615 -396 -1615 -27 0 -327 62
-430 88 -65 17 -69 20 -66 45 4 37 199 696 569 1927 712 2369 772 2570 768
2570 -2 0 -195 -128 -429 -284z"/>
<path d="M1543 4430 c-188 -32 -346 -61 -351 -64 -5 -3 -55 -130 -111 -284
l-102 -279 -267 -76 c-352 -102 -529 -155 -517 -156 6 -1 154 17 330 38 392
49 379 47 382 36 4 -15 -3 -35 -223 -637 -112 -306 -204 -560 -204 -564 0 -8
56 69 518 716 206 289 382 533 391 542 12 13 74 25 265 50 l248 33 80 159 c43
87 77 161 74 164 -3 3 -105 -23 -226 -58 -121 -35 -223 -61 -225 -58 -3 3 64
103 149 224 85 120 162 231 171 247 16 27 16 27 -12 26 -15 -1 -182 -27 -370
-59z"/>
<path d="M1830 3513 c-130 -121 -572 -540 -816 -773 l-162 -155 36 -13 c48
-17 920 -274 1164 -343 103 -29 190 -50 194 -47 5 6 49 438 75 745 l13 152
-33 53 c-47 76 -343 488 -350 488 -4 0 -58 -48 -121 -107z m75 -378 c107 -27
182 -65 194 -99 5 -12 23 -91 40 -176 31 -155 31 -155 11 -172 -11 -9 -109
-61 -217 -116 l-198 -99 -180 79 c-99 44 -182 81 -183 83 -2 2 6 78 17 170 12
91 21 170 21 175 0 6 15 16 33 24 17 8 102 46 187 85 85 39 160 71 166 71 6 0
55 -11 109 -25z"/>
</g>
</svg>
